<mxfile host="Electron" modified="2024-02-07T05:02:04.071Z" agent="Mozilla/5.0 (X11; Linux x86_64) AppleWebKit/537.36 (KHTML, like Gecko) draw.io/22.1.21 Chrome/120.0.6099.109 Electron/28.1.0 Safari/537.36" etag="D2KGY2NPPKpSS1LBBKg7" version="22.1.21" type="device">
  <diagram name="PÃ¡gina-1" id="O7MBfEGZBoNdr1yW5oVu">
    <mxGraphModel dx="1429" dy="907" grid="1" gridSize="10" guides="1" tooltips="1" connect="1" arrows="1" fold="1" page="1" pageScale="1" pageWidth="827" pageHeight="1169" math="0" shadow="0">
      <root>
        <mxCell id="0" />
        <mxCell id="1" parent="0" />
        <mxCell id="tNCyVdp1Aul9Red6iAFf-1" value="" style="group;fillColor=#232136;strokeColor=#232136;strokeWidth=25;" vertex="1" connectable="0" parent="1">
          <mxGeometry x="29.999999999999986" y="180" width="680" height="247.12" as="geometry" />
        </mxCell>
        <mxCell id="weasKUzhQbfyZyFGf2sW-2" value="Start" style="ellipse;whiteSpace=wrap;html=1;aspect=fixed;strokeColor=#DB918D;fontColor=#FFFFFF;fillColor=none;strokeWidth=3;fontSize=12;" parent="tNCyVdp1Aul9Red6iAFf-1" vertex="1">
          <mxGeometry y="53.25" width="50" height="50" as="geometry" />
        </mxCell>
        <mxCell id="weasKUzhQbfyZyFGf2sW-8" value="End" style="ellipse;whiteSpace=wrap;html=1;aspect=fixed;strokeColor=#DB918D;fontColor=#FFFFFF;fillColor=none;strokeWidth=3;fontSize=12;" parent="tNCyVdp1Aul9Red6iAFf-1" vertex="1">
          <mxGeometry x="79.51" y="80" width="50" height="50" as="geometry" />
        </mxCell>
        <mxCell id="weasKUzhQbfyZyFGf2sW-1" value="Execute problem identification process" style="rounded=1;whiteSpace=wrap;html=1;strokeColor=#DB918D;fontColor=#FFFFFF;fillColor=none;strokeWidth=3;fontSize=12;" parent="tNCyVdp1Aul9Red6iAFf-1" vertex="1">
          <mxGeometry x="203" y="11.25" width="160" height="40" as="geometry" />
        </mxCell>
        <mxCell id="weasKUzhQbfyZyFGf2sW-5" value="Application &lt;br style=&quot;font-size: 12px;&quot;&gt;Status?" style="rhombus;whiteSpace=wrap;html=1;rounded=0;strokeColor=#DB918D;strokeWidth=3;align=center;verticalAlign=middle;fontFamily=Helvetica;fontSize=12;fontColor=#FFFFFF;fillColor=none;spacingTop=2;" parent="tNCyVdp1Aul9Red6iAFf-1" vertex="1">
          <mxGeometry x="50.000000000000014" width="109.03" height="62.5" as="geometry" />
        </mxCell>
        <mxCell id="weasKUzhQbfyZyFGf2sW-6" style="edgeStyle=orthogonalEdgeStyle;shape=connector;curved=0;rounded=1;orthogonalLoop=1;jettySize=auto;html=1;labelBackgroundColor=default;strokeColor=#DB918D;strokeWidth=3;align=center;verticalAlign=middle;fontFamily=Helvetica;fontSize=12;fontColor=#FFFFFF;endArrow=openThin;endFill=0;fillColor=#FAE5C7;entryX=0;entryY=0.5;entryDx=0;entryDy=0;" parent="tNCyVdp1Aul9Red6iAFf-1" source="weasKUzhQbfyZyFGf2sW-2" target="weasKUzhQbfyZyFGf2sW-5" edge="1">
          <mxGeometry relative="1" as="geometry" />
        </mxCell>
        <mxCell id="weasKUzhQbfyZyFGf2sW-9" style="edgeStyle=orthogonalEdgeStyle;shape=connector;curved=0;rounded=1;orthogonalLoop=1;jettySize=auto;html=1;labelBackgroundColor=default;strokeColor=#DB918D;strokeWidth=3;align=center;verticalAlign=middle;fontFamily=Helvetica;fontSize=12;fontColor=#FFFFFF;endArrow=openThin;endFill=0;fillColor=#FAE5C7;" parent="tNCyVdp1Aul9Red6iAFf-1" source="weasKUzhQbfyZyFGf2sW-5" target="weasKUzhQbfyZyFGf2sW-8" edge="1">
          <mxGeometry relative="1" as="geometry" />
        </mxCell>
        <mxCell id="weasKUzhQbfyZyFGf2sW-7" style="edgeStyle=orthogonalEdgeStyle;shape=connector;curved=0;rounded=1;orthogonalLoop=1;jettySize=auto;html=1;labelBackgroundColor=default;strokeColor=#DB918D;strokeWidth=3;align=center;verticalAlign=middle;fontFamily=Helvetica;fontSize=12;fontColor=#FFFFFF;endArrow=openThin;endFill=0;fillColor=#FAE5C7;" parent="tNCyVdp1Aul9Red6iAFf-1" source="weasKUzhQbfyZyFGf2sW-5" target="weasKUzhQbfyZyFGf2sW-1" edge="1">
          <mxGeometry relative="1" as="geometry" />
        </mxCell>
        <mxCell id="weasKUzhQbfyZyFGf2sW-11" value="Coherent" style="text;html=1;strokeColor=none;fillColor=none;align=center;verticalAlign=middle;whiteSpace=wrap;rounded=0;fontSize=12;fontFamily=Helvetica;fontColor=#FFFFFF;" parent="tNCyVdp1Aul9Red6iAFf-1" vertex="1">
          <mxGeometry x="118.75000000000001" y="56" width="36.25" height="20" as="geometry" />
        </mxCell>
        <mxCell id="weasKUzhQbfyZyFGf2sW-13" value="Not &lt;br style=&quot;font-size: 12px;&quot;&gt;coherent" style="text;html=1;strokeColor=none;fillColor=none;align=left;verticalAlign=middle;whiteSpace=wrap;rounded=0;fontSize=12;fontFamily=Helvetica;fontColor=#FFFFFF;" parent="tNCyVdp1Aul9Red6iAFf-1" vertex="1">
          <mxGeometry x="148.28000000000003" y="2" width="73.91" height="20" as="geometry" />
        </mxCell>
        <mxCell id="weasKUzhQbfyZyFGf2sW-15" value="Get actions to take with the location and data requirement info" style="rounded=1;whiteSpace=wrap;html=1;strokeColor=#DB918D;fontColor=#FFFFFF;fillColor=none;strokeWidth=3;fontSize=12;" parent="tNCyVdp1Aul9Red6iAFf-1" vertex="1">
          <mxGeometry x="203" y="74" width="160" height="50" as="geometry" />
        </mxCell>
        <mxCell id="weasKUzhQbfyZyFGf2sW-16" style="edgeStyle=orthogonalEdgeStyle;shape=connector;curved=0;rounded=1;orthogonalLoop=1;jettySize=auto;html=1;exitX=0.5;exitY=1;exitDx=0;exitDy=0;labelBackgroundColor=default;strokeColor=#DB918D;strokeWidth=3;align=center;verticalAlign=middle;fontFamily=Helvetica;fontSize=12;fontColor=#FFFFFF;endArrow=openThin;endFill=0;fillColor=#FAE5C7;" parent="tNCyVdp1Aul9Red6iAFf-1" source="weasKUzhQbfyZyFGf2sW-1" target="weasKUzhQbfyZyFGf2sW-15" edge="1">
          <mxGeometry relative="1" as="geometry" />
        </mxCell>
        <mxCell id="Puos1YkfTBZv_9QDnM-f-1" style="edgeStyle=orthogonalEdgeStyle;shape=connector;curved=0;rounded=1;orthogonalLoop=1;jettySize=auto;html=1;exitX=0;exitY=0.5;exitDx=0;exitDy=0;entryX=0.5;entryY=1;entryDx=0;entryDy=0;labelBackgroundColor=default;strokeColor=#DB918D;strokeWidth=3;align=center;verticalAlign=middle;fontFamily=Helvetica;fontSize=12;fontColor=#FFFFFF;endArrow=openThin;endFill=0;fillColor=#FAE5C7;" parent="tNCyVdp1Aul9Red6iAFf-1" source="weasKUzhQbfyZyFGf2sW-17" target="weasKUzhQbfyZyFGf2sW-8" edge="1">
          <mxGeometry relative="1" as="geometry" />
        </mxCell>
        <mxCell id="weasKUzhQbfyZyFGf2sW-17" value="Actions left to execute?" style="rhombus;whiteSpace=wrap;html=1;rounded=0;strokeColor=#DB918D;strokeWidth=3;align=center;verticalAlign=middle;fontFamily=Helvetica;fontSize=12;fontColor=#FFFFFF;fillColor=none;spacingTop=7;" parent="tNCyVdp1Aul9Red6iAFf-1" vertex="1">
          <mxGeometry x="228.48999999999995" y="144.5" width="109.03" height="62.5" as="geometry" />
        </mxCell>
        <mxCell id="weasKUzhQbfyZyFGf2sW-18" style="edgeStyle=orthogonalEdgeStyle;shape=connector;curved=0;rounded=1;orthogonalLoop=1;jettySize=auto;html=1;labelBackgroundColor=default;strokeColor=#DB918D;strokeWidth=3;align=center;verticalAlign=middle;fontFamily=Helvetica;fontSize=12;fontColor=#FFFFFF;endArrow=openThin;endFill=0;fillColor=#FAE5C7;" parent="tNCyVdp1Aul9Red6iAFf-1" source="weasKUzhQbfyZyFGf2sW-15" target="weasKUzhQbfyZyFGf2sW-17" edge="1">
          <mxGeometry relative="1" as="geometry" />
        </mxCell>
        <mxCell id="weasKUzhQbfyZyFGf2sW-19" value="No" style="text;html=1;strokeColor=none;fillColor=none;align=center;verticalAlign=middle;whiteSpace=wrap;rounded=0;fontSize=12;fontFamily=Helvetica;fontColor=#FFFFFF;" parent="tNCyVdp1Aul9Red6iAFf-1" vertex="1">
          <mxGeometry x="208.99" y="157.5" width="23.5" height="18.5" as="geometry" />
        </mxCell>
        <mxCell id="weasKUzhQbfyZyFGf2sW-21" value="Yes" style="text;html=1;strokeColor=none;fillColor=none;align=center;verticalAlign=middle;whiteSpace=wrap;rounded=0;fontSize=12;fontFamily=Helvetica;fontColor=#FFFFFF;" parent="tNCyVdp1Aul9Red6iAFf-1" vertex="1">
          <mxGeometry x="315.00000000000006" y="150" width="36.25" height="20" as="geometry" />
        </mxCell>
        <mxCell id="Puos1YkfTBZv_9QDnM-f-8" value="Build corresponding order from &lt;br&gt;location and data&lt;br&gt;requirement info" style="rounded=1;whiteSpace=wrap;html=1;strokeColor=#DB918D;fontColor=#FFFFFF;fillColor=none;strokeWidth=3;fontSize=12;" parent="tNCyVdp1Aul9Red6iAFf-1" vertex="1">
          <mxGeometry x="560" width="120" height="88" as="geometry" />
        </mxCell>
        <mxCell id="eJLsP098SzrVyEOCUtsY-2" style="edgeStyle=orthogonalEdgeStyle;shape=connector;curved=0;rounded=1;orthogonalLoop=1;jettySize=auto;html=1;entryX=0.5;entryY=1;entryDx=0;entryDy=0;labelBackgroundColor=default;strokeColor=#DB918D;strokeWidth=3;align=center;verticalAlign=middle;fontFamily=Helvetica;fontSize=12;fontColor=#FFFFFF;endArrow=openThin;endFill=0;fillColor=#FAE5C7;exitX=0.5;exitY=1;exitDx=0;exitDy=0;" parent="tNCyVdp1Aul9Red6iAFf-1" source="eJLsP098SzrVyEOCUtsY-3" target="weasKUzhQbfyZyFGf2sW-17" edge="1">
          <mxGeometry relative="1" as="geometry">
            <Array as="points">
              <mxPoint x="479" y="224" />
              <mxPoint x="283" y="224" />
            </Array>
          </mxGeometry>
        </mxCell>
        <mxCell id="eJLsP098SzrVyEOCUtsY-5" style="edgeStyle=orthogonalEdgeStyle;shape=connector;curved=0;rounded=1;orthogonalLoop=1;jettySize=auto;html=1;labelBackgroundColor=default;strokeColor=#DB918D;strokeWidth=3;align=center;verticalAlign=middle;fontFamily=Helvetica;fontSize=12;fontColor=#FFFFFF;endArrow=openThin;endFill=0;fillColor=#FAE5C7;" parent="tNCyVdp1Aul9Red6iAFf-1" source="eJLsP098SzrVyEOCUtsY-1" target="Puos1YkfTBZv_9QDnM-f-8" edge="1">
          <mxGeometry relative="1" as="geometry" />
        </mxCell>
        <mxCell id="eJLsP098SzrVyEOCUtsY-1" value="Directive for&lt;br style=&quot;font-size: 12px;&quot;&gt;&amp;nbsp;location &lt;br style=&quot;font-size: 12px;&quot;&gt;and Action?" style="rhombus;whiteSpace=wrap;html=1;rounded=0;strokeColor=#DB918D;strokeWidth=3;align=center;verticalAlign=middle;fontFamily=Helvetica;fontSize=12;fontColor=#FFFFFF;fillColor=none;spacingTop=0;" parent="tNCyVdp1Aul9Red6iAFf-1" vertex="1">
          <mxGeometry x="416.34000000000003" y="5.8700000000000045" width="125.95" height="76.25" as="geometry" />
        </mxCell>
        <mxCell id="Puos1YkfTBZv_9QDnM-f-4" style="edgeStyle=orthogonalEdgeStyle;shape=connector;curved=0;rounded=1;orthogonalLoop=1;jettySize=auto;html=1;labelBackgroundColor=default;strokeColor=#DB918D;strokeWidth=3;align=center;verticalAlign=middle;fontFamily=Helvetica;fontSize=12;fontColor=#FFFFFF;endArrow=openThin;endFill=0;fillColor=#FAE5C7;entryX=0;entryY=0.5;entryDx=0;entryDy=0;exitX=1;exitY=0.5;exitDx=0;exitDy=0;" parent="tNCyVdp1Aul9Red6iAFf-1" source="weasKUzhQbfyZyFGf2sW-17" target="eJLsP098SzrVyEOCUtsY-1" edge="1">
          <mxGeometry relative="1" as="geometry">
            <Array as="points">
              <mxPoint x="377" y="176" />
              <mxPoint x="377" y="44" />
            </Array>
            <mxPoint x="416.01" y="105" as="targetPoint" />
          </mxGeometry>
        </mxCell>
        <mxCell id="eJLsP098SzrVyEOCUtsY-4" value="" style="edgeStyle=orthogonalEdgeStyle;shape=connector;curved=0;rounded=1;orthogonalLoop=1;jettySize=auto;html=1;labelBackgroundColor=default;strokeColor=#DB918D;strokeWidth=3;align=center;verticalAlign=middle;fontFamily=Helvetica;fontSize=12;fontColor=#FFFFFF;endArrow=openThin;endFill=0;fillColor=#FAE5C7;exitX=0.5;exitY=1;exitDx=0;exitDy=0;" parent="tNCyVdp1Aul9Red6iAFf-1" source="eJLsP098SzrVyEOCUtsY-1" target="eJLsP098SzrVyEOCUtsY-3" edge="1">
          <mxGeometry relative="1" as="geometry">
            <mxPoint x="479" y="143" as="sourcePoint" />
            <mxPoint x="283" y="215" as="targetPoint" />
          </mxGeometry>
        </mxCell>
        <mxCell id="eJLsP098SzrVyEOCUtsY-3" value="Report missing directive" style="rounded=1;whiteSpace=wrap;html=1;strokeColor=#DB918D;fontColor=#FFFFFF;fillColor=none;strokeWidth=3;fontSize=12;" parent="tNCyVdp1Aul9Red6iAFf-1" vertex="1">
          <mxGeometry x="429.32" y="140" width="100" height="40" as="geometry" />
        </mxCell>
        <mxCell id="eJLsP098SzrVyEOCUtsY-7" value="Add action to things tried in location for data requirement" style="rounded=1;whiteSpace=wrap;html=1;strokeColor=#DB918D;fontColor=#FFFFFF;fillColor=none;strokeWidth=3;fontSize=12;spacingLeft=3;spacingRight=3;" parent="tNCyVdp1Aul9Red6iAFf-1" vertex="1">
          <mxGeometry x="560" y="114.38" width="120" height="65.62" as="geometry" />
        </mxCell>
        <mxCell id="eJLsP098SzrVyEOCUtsY-8" style="edgeStyle=orthogonalEdgeStyle;shape=connector;curved=0;rounded=1;orthogonalLoop=1;jettySize=auto;html=1;labelBackgroundColor=default;strokeColor=#DB918D;strokeWidth=3;align=center;verticalAlign=middle;fontFamily=Helvetica;fontSize=12;fontColor=#FFFFFF;endArrow=openThin;endFill=0;fillColor=#FAE5C7;" parent="tNCyVdp1Aul9Red6iAFf-1" source="Puos1YkfTBZv_9QDnM-f-8" target="eJLsP098SzrVyEOCUtsY-7" edge="1">
          <mxGeometry relative="1" as="geometry" />
        </mxCell>
        <mxCell id="eJLsP098SzrVyEOCUtsY-11" style="edgeStyle=orthogonalEdgeStyle;shape=connector;curved=0;rounded=1;orthogonalLoop=1;jettySize=auto;html=1;labelBackgroundColor=default;strokeColor=#DB918D;strokeWidth=3;align=center;verticalAlign=middle;fontFamily=Helvetica;fontSize=12;fontColor=#FFFFFF;endArrow=openThin;endFill=0;fillColor=#FAE5C7;" parent="tNCyVdp1Aul9Red6iAFf-1" source="eJLsP098SzrVyEOCUtsY-9" target="weasKUzhQbfyZyFGf2sW-17" edge="1">
          <mxGeometry relative="1" as="geometry">
            <Array as="points">
              <mxPoint x="283" y="224" />
            </Array>
          </mxGeometry>
        </mxCell>
        <mxCell id="eJLsP098SzrVyEOCUtsY-9" value="Send Order to &lt;br style=&quot;font-size: 12px;&quot;&gt;executor service" style="rounded=1;whiteSpace=wrap;html=1;strokeColor=#DB918D;fontColor=#FFFFFF;fillColor=none;strokeWidth=3;fontSize=12;" parent="tNCyVdp1Aul9Red6iAFf-1" vertex="1">
          <mxGeometry x="560" y="201.5" width="120" height="45.62" as="geometry" />
        </mxCell>
        <mxCell id="eJLsP098SzrVyEOCUtsY-10" value="" style="edgeStyle=orthogonalEdgeStyle;shape=connector;curved=0;rounded=1;orthogonalLoop=1;jettySize=auto;html=1;labelBackgroundColor=default;strokeColor=#DB918D;strokeWidth=3;align=center;verticalAlign=middle;fontFamily=Helvetica;fontSize=12;fontColor=#FFFFFF;endArrow=openThin;endFill=0;fillColor=#FAE5C7;" parent="tNCyVdp1Aul9Red6iAFf-1" source="eJLsP098SzrVyEOCUtsY-7" target="eJLsP098SzrVyEOCUtsY-9" edge="1">
          <mxGeometry relative="1" as="geometry" />
        </mxCell>
        <mxCell id="eJLsP098SzrVyEOCUtsY-15" value="Yes" style="text;html=1;strokeColor=none;fillColor=none;align=center;verticalAlign=middle;whiteSpace=wrap;rounded=0;fontSize=12;fontFamily=Helvetica;fontColor=#FFFFFF;" parent="tNCyVdp1Aul9Red6iAFf-1" vertex="1">
          <mxGeometry x="521" y="19.590000000000003" width="36.25" height="20" as="geometry" />
        </mxCell>
        <mxCell id="eJLsP098SzrVyEOCUtsY-16" value="No" style="text;html=1;strokeColor=none;fillColor=none;align=center;verticalAlign=middle;whiteSpace=wrap;rounded=0;fontSize=12;fontFamily=Helvetica;fontColor=#FFFFFF;" parent="tNCyVdp1Aul9Red6iAFf-1" vertex="1">
          <mxGeometry x="444" y="71.00000000000003" width="23.5" height="18.5" as="geometry" />
        </mxCell>
      </root>
    </mxGraphModel>
  </diagram>
</mxfile>
